<svg width="28" height="26" viewBox="0 0 28 26" fill="none" xmlns="http://www.w3.org/2000/svg">
<path fill-rule="evenodd" clip-rule="evenodd" d="M7.1579 0C7.1579 0 7.45991 2.81891 8.63629 3.99529C9.81267 5.17167 12.6316 5.47368 12.6316 5.47368C12.6316 5.47368 9.81267 5.7757 8.63629 6.95208C7.45991 8.12846 7.1579 10.9474 7.1579 10.9474C7.1579 10.9474 6.85589 8.12846 5.67951 6.95208C4.50313 5.7757 1.68422 5.47368 1.68422 5.47368C1.68422 5.47368 4.50313 5.17167 5.67951 3.99529C6.85589 2.81891 7.1579 0 7.1579 0ZM19.4737 4.10526C19.4737 4.10526 19.9267 8.33363 21.6913 10.0982C23.4558 11.8628 27.6842 12.3158 27.6842 12.3158C27.6842 12.3158 23.4558 12.7688 21.6913 14.5334C19.9267 16.2979 19.4737 20.5263 19.4737 20.5263C19.4737 20.5263 19.0207 16.2979 17.2561 14.5334C15.4915 12.7688 11.2632 12.3158 11.2632 12.3158C11.2632 12.3158 15.4915 11.8628 17.2561 10.0982C19.0207 8.33363 19.4737 4.10526 19.4737 4.10526ZM9.00589 17.3099C7.53542 15.8394 7.1579 12.3158 7.1579 12.3158C7.1579 12.3158 6.78039 15.8394 5.30991 17.3099C3.83944 18.7804 0.315796 19.1579 0.315796 19.1579C0.315796 19.1579 3.83944 19.5354 5.30991 21.0059C6.78039 22.4764 7.1579 26 7.1579 26C7.1579 26 7.53542 22.4764 9.00589 21.0059C10.4764 19.5354 14 19.1579 14 19.1579C14 19.1579 10.4764 18.7804 9.00589 17.3099Z" fill="url(#paint0_linear_1_904)"/>
<defs>
<linearGradient id="paint0_linear_1_904" x1="2.16719" y1="2.05263" x2="29.2027" y2="4.55099" gradientUnits="userSpaceOnUse">
<stop offset="0.0695937" stop-color="#4467FF"/>
<stop offset="0.816425" stop-color="#7241FF"/>
</linearGradient>
</defs>
</svg>
